<svg viewBox="0 0 380 1500" xmlns="http://www.w3.org/2000/svg" font-family="Arial, sans-serif">
  <rect width="380" height="1500" fill="#ffffff"/>

  <!-- Header -->
  <rect x="0" y="0" width="380" height="56" fill="#e6e6e6"/>
  <rect x="20" y="18" width="70" height="18" fill="#9c9c9c"/>
  <rect x="320" y="18" width="36" height="18" fill="#bdbdbd"/>
  <text x="190" y="34" font-size="9" fill="#8a8a8a" text-anchor="middle">HEADER + MENU BURGER</text>

  <!-- Hero -->
  <rect x="0" y="56" width="380" height="260" fill="#f5f5f5"/>
  <circle cx="190" cy="130" r="60" fill="#cdeee9" stroke="#0f9b8e" stroke-width="3"/>
  <rect x="60" y="205" width="260" height="20" fill="#4d4d4d"/>
  <rect x="90" y="235" width="200" height="20" fill="#4d4d4d"/>
  <rect x="110" y="270" width="160" height="30" rx="15" fill="#0f9b8e"/>
  <text x="190" y="330" font-size="9" fill="#8a8a8a" text-anchor="middle">HERO — centré, CTA pleine largeur</text>

  <!-- A propos -->
  <rect x="0" y="345" width="380" height="230" fill="#ffffff"/>
  <circle cx="190" cy="410" r="55" fill="#eeeeee" stroke="#bdbdbd" stroke-width="2"/>
  <rect x="40" y="480" width="300" height="12" fill="#a3a3a3"/>
  <rect x="40" y="500" width="280" height="12" fill="#a3a3a3"/>
  <rect x="40" y="520" width="260" height="12" fill="#a3a3a3"/>
  <rect x="110" y="545" width="160" height="28" rx="14" fill="#ffffff" stroke="#4d4d4d" stroke-width="2"/>
  <text x="190" y="600" font-size="9" fill="#8a8a8a" text-anchor="middle">A PROPOS — empilé, centré</text>

  <!-- Competences -->
  <rect x="0" y="615" width="380" height="260" fill="#f5f5f5"/>
  <rect x="40" y="650" width="300" height="12" fill="#bdbdbd"/>
  <rect x="40" y="650" width="200" height="12" fill="#0f9b8e"/>
  <rect x="40" y="685" width="300" height="12" fill="#bdbdbd"/>
  <rect x="40" y="685" width="150" height="12" fill="#0f9b8e"/>
  <rect x="40" y="720" width="300" height="12" fill="#bdbdbd"/>
  <rect x="40" y="720" width="230" height="12" fill="#0f9b8e"/>
  <rect x="40" y="755" width="300" height="12" fill="#bdbdbd"/>
  <rect x="40" y="755" width="170" height="12" fill="#0f9b8e"/>
  <text x="190" y="855" font-size="9" fill="#8a8a8a" text-anchor="middle">COMPETENCES — 1 seule colonne</text>

  <!-- Projets -->
  <rect x="0" y="890" width="380" height="330" fill="#ffffff"/>
  <rect x="40" y="920" width="300" height="90" rx="8" fill="#f0f0f0" stroke="#c9c9c9"/>
  <rect x="40" y="1025" width="300" height="90" rx="8" fill="#f0f0f0" stroke="#c9c9c9"/>
  <rect x="40" y="1130" width="300" height="90" rx="8" fill="#f0f0f0" stroke="#c9c9c9"/>
  <text x="190" y="1245" font-size="9" fill="#8a8a8a" text-anchor="middle">PROJETS — cartes empilées</text>

  <!-- Contact -->
  <rect x="0" y="1265" width="380" height="235" fill="#1a2438"/>
  <rect x="130" y="1290" width="120" height="18" fill="#ffffff"/>
  <rect x="40" y="1325" width="300" height="30" rx="4" fill="#2a3550"/>
  <rect x="40" y="1365" width="300" height="30" rx="4" fill="#2a3550"/>
  <rect x="40" y="1405" width="300" height="50" rx="4" fill="#2a3550"/>
  <rect x="110" y="1470" width="160" height="30" rx="15" fill="#0f9b8e"/>
  <text x="190" y="1495" font-size="9" fill="#8a8a8a" text-anchor="middle">CONTACT — champs empilés</text>
</svg>
